<svg width="44" height="44" viewBox="0 0 44 44" fill="none" xmlns="http://www.w3.org/2000/svg">
<g clip-path="url(#clip0_2_263)">
<path d="M5 37L24 18C24.5523 17.4477 25.4477 17.4477 26 18C26.5523 18.5523 26.5523 19.4477 26 20L7 39C6.44771 39.5523 5.55228 39.5523 5 39C4.44771 38.4477 4.44771 37.5523 5 37Z" fill="#EB0000"/>
<foreignObject x="-0.818298" y="-7.51472" width="52.333" height="52.5427"><div xmlns="http://www.w3.org/1999/xhtml" style="backdrop-filter:blur(5px);clip-path:url(#bgblur_1_2_263_clip_path);height:100%;width:100%"></div></foreignObject><g filter="url(#filter0_din_2_263)" data-figma-bg-blur-radius="10">
<path d="M34.2426 4.24263L39.7573 9.75735C42.1005 12.1005 42.1005 15.8995 39.7573 18.2426L34.2075 23.7924C34.0699 23.9301 33.9531 24.0871 33.8608 24.2584L28.9116 33.4499C27.9588 35.2192 25.5698 35.5699 24.1489 34.1489L10.061 20.0611C8.57992 18.5799 9.03408 16.0754 10.9409 15.2086L17.6698 12.1501C17.8882 12.0508 18.0869 11.9131 18.2564 11.7435L25.7573 4.24264C28.1005 1.89949 31.8995 1.89949 34.2426 4.24263Z" fill="url(#paint0_linear_2_263)" shape-rendering="crispEdges"/>
<path d="M34.2426 4.24263L39.7573 9.75735C42.1005 12.1005 42.1005 15.8995 39.7573 18.2426L34.2075 23.7924C34.0699 23.9301 33.9531 24.0871 33.8608 24.2584L28.9116 33.4499C27.9588 35.2192 25.5698 35.5699 24.1489 34.1489L10.061 20.0611C8.57992 18.5799 9.03408 16.0754 10.9409 15.2086L17.6698 12.1501C17.8882 12.0508 18.0869 11.9131 18.2564 11.7435L25.7573 4.24264C28.1005 1.89949 31.8995 1.89949 34.2426 4.24263Z" fill="#EB0000" fill-opacity="0.25" shape-rendering="crispEdges"/>
<path d="M25.8282 4.3134C28.1323 2.00935 31.8679 2.00932 34.1719 4.3134L39.6866 9.82805C41.9907 12.1321 41.9906 15.8677 39.6866 18.1718L34.1368 23.7216C33.9923 23.8661 33.8694 24.0309 33.7725 24.2109L28.8233 33.4023C27.9023 35.1127 25.5934 35.4516 24.2198 34.078L10.1319 19.9902C8.70018 18.5584 9.13918 16.1376 10.9825 15.2997L17.711 12.2411C17.9402 12.1369 18.1492 11.9924 18.3272 11.8144L25.8282 4.3134Z" stroke="url(#paint1_linear_2_263)" stroke-width="0.2" shape-rendering="crispEdges"/>
</g>
</g>
<defs>
<filter id="filter0_din_2_263" x="-0.818298" y="-7.51472" width="52.333" height="52.5427" filterUnits="userSpaceOnUse" color-interpolation-filters="sRGB">
<feFlood flood-opacity="0" result="BackgroundImageFix"/>
<feColorMatrix in="SourceAlpha" type="matrix" values="0 0 0 0 0 0 0 0 0 0 0 0 0 0 0 0 0 0 127 0" result="hardAlpha"/>
<feOffset dy="1"/>
<feGaussianBlur stdDeviation="2"/>
<feComposite in2="hardAlpha" operator="out"/>
<feColorMatrix type="matrix" values="0 0 0 0 0 0 0 0 0 0 0 0 0 0 0 0 0 0 0.12 0"/>
<feBlend mode="normal" in2="BackgroundImageFix" result="effect1_dropShadow_2_263"/>
<feBlend mode="normal" in="SourceGraphic" in2="BackgroundImageFix" result="shape"/>
<feColorMatrix in="SourceAlpha" type="matrix" values="0 0 0 0 0 0 0 0 0 0 0 0 0 0 0 0 0 0 127 0" result="hardAlpha"/>
<feOffset dy="1"/>
<feGaussianBlur stdDeviation="1.5"/>
<feComposite in2="hardAlpha" operator="arithmetic" k2="-1" k3="1"/>
<feColorMatrix type="matrix" values="0 0 0 0 1 0 0 0 0 1 0 0 0 0 1 0 0 0 0.1 0"/>
<feBlend mode="normal" in2="shape" result="effect2_innerShadow_2_263"/>
<feTurbulence type="fractalNoise" baseFrequency="10 10" stitchTiles="stitch" numOctaves="3" result="noise" seed="4151" />
<feColorMatrix in="noise" type="luminanceToAlpha" result="alphaNoise" />
<feComponentTransfer in="alphaNoise" result="coloredNoise1">
<feFuncA type="discrete" tableValues="0 0 0 0 0 0 0 1 1 1 1 1 1 1 1 1 1 1 1 1 1 1 1 1 1 1 1 1 1 1 1 1 1 1 1 1 1 1 1 1 1 1 1 0 0 0 0 0 0 0 0 0 0 0 0 0 0 0 0 0 0 0 0 0 0 0 0 0 0 0 0 0 0 0 0 0 0 0 0 0 0 0 0 0 0 0 0 0 0 0 0 0 0 0 0 0 0 0 0 0 "/>
</feComponentTransfer>
<feComposite operator="in" in2="effect2_innerShadow_2_263" in="coloredNoise1" result="noise1Clipped" />
<feFlood flood-color="rgba(0, 0, 0, 0.05)" result="color1Flood" />
<feComposite operator="in" in2="noise1Clipped" in="color1Flood" result="color1" />
<feMerge result="effect3_noise_2_263">
<feMergeNode in="effect2_innerShadow_2_263" />
<feMergeNode in="color1" />
</feMerge>
<feBlend mode="normal" in="effect3_noise_2_263" in2="effect1_dropShadow_2_263" result="effect3_noise_2_263"/>
</filter>
<clipPath id="bgblur_1_2_263_clip_path" transform="translate(0.818298 7.51472)"><path d="M34.2426 4.24263L39.7573 9.75735C42.1005 12.1005 42.1005 15.8995 39.7573 18.2426L34.2075 23.7924C34.0699 23.9301 33.9531 24.0871 33.8608 24.2584L28.9116 33.4499C27.9588 35.2192 25.5698 35.5699 24.1489 34.1489L10.061 20.0611C8.57992 18.5799 9.03408 16.0754 10.9409 15.2086L17.6698 12.1501C17.8882 12.0508 18.0869 11.9131 18.2564 11.7435L25.7573 4.24264C28.1005 1.89949 31.8995 1.89949 34.2426 4.24263Z"/>
</clipPath><linearGradient id="paint0_linear_2_263" x1="26.5" y1="0.708317" x2="26.5" y2="33" gradientUnits="userSpaceOnUse">
<stop stop-color="white" stop-opacity="0.1"/>
<stop offset="1" stop-color="white" stop-opacity="0"/>
</linearGradient>
<linearGradient id="paint1_linear_2_263" x1="25.3482" y1="2.48528" x2="25.3482" y2="35.0279" gradientUnits="userSpaceOnUse">
<stop stop-color="white" stop-opacity="0.15"/>
<stop offset="1" stop-color="white" stop-opacity="0"/>
</linearGradient>
<clipPath id="clip0_2_263">
<rect width="44" height="44" fill="white"/>
</clipPath>
</defs>
</svg>
